# xmcd
#
# Track frame offsets:
#	150
#	11356
#	25223
#	41445
#	55275
#	68507
#	87924
#	105034
#	118757
#	131461
#	141857
#	154976
#
# Disc length: 2230 seconds
# Revision: 0
# Processed by: cddbd v1.5.2PL0 Copyright (c) Steve Scherf et al.
# Submitted via: dBpowerAMP V12.0
#
DISCID=9008b40c
DTITLE=Various Artist - Georgia Maple
DYEAR=2016
DGENRE=Country
TTITLE0=Edgar Loudermilk - My Kentucky Home
TTITLE1=Edgar Loudermilk - Homesick Blues
TTITLE2=Edgar Loudermilk - Dreaming Enough To Get Me By
TTITLE3=Edgar Loudermilk - Georgia Maple
TTITLE4=Edgar Loudermilk - My Home In Caroline
TTITLE5=Edgar Loudermilk with Paul Curvin - I'll See You In My Dreams
TTITLE6=Edgar Loudermilk - Harvest Of My Hearts
TTITLE7=Edgar Loudermilk - It Must Be Love
TTITLE8=Edgar Loudermilk - Blues Ain't Coming Through My Door
TTITLE9=Edgar Loudermilk - Trains Can't Turn Around
TTITLE10=Edgar Loudermilk - Until Your Love Brings Me Back
TTITLE11=Edgar Loudermilk - This Letter
EXTD=
EXTT0=
EXTT1=
EXTT2=
EXTT3=
EXTT4=
EXTT5=
EXTT6=
EXTT7=
EXTT8=
EXTT9=
EXTT10=
EXTT11=
PLAYORDER=
